<svg aria-hidden="true" style="position: absolute; width: 0; height: 0; overflow: hidden;" version="1.1" xmlns="http://www.w3.org/2000/svg" xmlns:xlink="http://www.w3.org/1999/xlink">
<defs>
<symbol id="icon-location" viewBox="0 0 21 32">
<path fill="#fff" style="fill: var(--color1, #fff)" d="M10.667 0c-5.882 0-10.667 4.99-10.667 11.123 0 7.709 10.677 20.877 10.677 20.877s10.656-13.547 10.656-20.877c0-6.133-4.785-11.123-10.667-11.123zM13.885 14.38c-0.887 0.925-2.053 1.388-3.218 1.388s-2.331-0.463-3.218-1.388c-1.775-1.85-1.775-4.861 0-6.712 0.859-0.896 2.002-1.39 3.218-1.39s2.359 0.494 3.218 1.39c1.775 1.851 1.775 4.861 0 6.712z"></path>
</symbol>
<symbol id="icon-search" viewBox="0 0 32 32">
<path fill="#939393" style="fill: var(--color2, #939393)" d="M4.024 4.024c2.595-2.595 6.045-4.024 9.715-4.024s7.12 1.429 9.715 4.024c2.595 2.595 4.024 6.045 4.024 9.715 0 3.355-1.195 6.526-3.383 9.029l7.63 7.63c0.367 0.366 0.367 0.961 0 1.327-0.183 0.183-0.423 0.275-0.663 0.275s-0.481-0.092-0.664-0.275l-7.63-7.63c-2.502 2.188-5.673 3.383-9.029 3.383-3.67 0-7.12-1.429-9.715-4.024s-4.024-6.045-4.024-9.715 1.429-7.12 4.024-9.715zM5.351 22.127c4.625 4.625 12.15 4.625 16.775 0s4.625-12.15 0-16.775c-2.313-2.313-5.35-3.469-8.388-3.469s-6.075 1.157-8.388 3.469c-4.625 4.625-4.625 12.15 0 16.775z"></path>
</symbol>
<symbol id="icon-country" viewBox="0 0 52 32">
<path fill="#939393" style="fill: var(--color2, #939393)" d="M26 32l-25.981-30h51.962l-25.981 30z"></path>
</symbol>
<symbol id="icon-logo" viewBox="0 0 62 32">
<path fill="#fff" style="fill: var(--color1, #fff)" d="M0.044 0.881h7.538v2.617h-4.832v1.308h4.015v2.483h-4.015v1.323h4.832v2.617h-7.538v-10.348z"></path>
<path fill="#fff" style="fill: var(--color1, #fff)" d="M19.195 24.020c-0.576-1.602-1.762-2.403-3.558-2.403h-0.566v9.881h0.566c1.388 0 2.412-0.547 3.073-1.641 0.557-0.934 0.835-2.122 0.835-3.564-0.001-0.858-0.118-1.615-0.35-2.272z"></path>
<path fill="#fff" style="fill: var(--color1, #fff)" d="M9.473 24.139c0.577 1.602 1.763 2.403 3.557 2.403h0.566v-9.881h-0.566c-1.388 0-2.412 0.547-3.073 1.641-0.555 0.933-0.833 2.122-0.833 3.564 0 0.857 0.116 1.615 0.349 2.272z"></path>
<path fill="#fff" style="fill: var(--color1, #fff)" d="M11.374 0.868h9.754l-4.877 10.572-4.877-10.572zM16.251 10.131l4.029-8.713h-8.044l4.015 8.713z"></path>
<path fill="#fff" style="fill: var(--color1, #fff)" d="M25.023 0.881h7.538v2.617h-4.832v1.308h4.015v2.483h-4.015v1.323h4.832v2.617h-7.538v-10.349z"></path>
<path fill="#fff" style="fill: var(--color1, #fff)" d="M37.201 11.214v-10.346h0.58l7.226 7.033v-7.033h0.55v10.349l-8.356-0.002z"></path>
<path fill="#fff" style="fill: var(--color1, #fff)" d="M53.452 11.229v-7.732h-3.91v-2.617h8.356v2.617h-3.91v7.732h-0.535z"></path>
<path fill="#fff" style="fill: var(--color1, #fff)" d="M4.49 18.723c0.654 0 1.175 0.099 1.561 0.297 0.444 0.217 0.817 0.556 1.075 0.977s0.391 0.908 0.382 1.402c0.003 0.476-0.131 0.943-0.387 1.346-0.259 0.413-0.624 0.749-1.056 0.974 0.537 0.189 1.007 0.53 1.353 0.981 0.36 0.446 0.554 1.003 0.55 1.576 0.004 0.501-0.133 0.993-0.394 1.42-0.256 0.424-0.617 0.775-1.048 1.019-0.229 0.123-0.474 0.213-0.729 0.268-0.268 0.059-0.625 0.089-1.071 0.089h-4.58v-10.349h4.342z"></path>
<path fill="#fff" style="fill: var(--color1, #fff)" d="M21.923 28.321c-0.778-0.679-1.162-1.698-1.152-3.055h2.424c-0.010 0.565 0.159 0.996 0.506 1.294s0.833 0.446 1.457 0.446c0.515 0 0.922-0.084 1.219-0.253s0.446-0.426 0.446-0.773c0-0.287-0.151-0.496-0.454-0.625-0.289-0.125-0.59-0.217-0.899-0.275-0.297-0.055-0.481-0.088-0.55-0.099-0.674-0.125-1.335-0.307-1.977-0.545-0.539-0.201-1.020-0.533-1.398-0.966-0.377-0.436-0.565-1.011-0.565-1.725s0.188-1.321 0.565-1.821c0.377-0.501 0.88-0.875 1.509-1.123 0.657-0.253 1.356-0.379 2.059-0.372 0.902 0 1.683 0.168 2.342 0.506s1.177 0.847 1.554 1.531c0.175 0.289 0.291 0.61 0.342 0.944 0.039 0.293 0.059 0.589 0.059 0.885h-2.424c0-0.535-0.144-0.929-0.431-1.182s-0.734-0.379-1.338-0.379c-0.486 0-0.862 0.084-1.13 0.253s-0.401 0.396-0.401 0.684c0 0.317 0.178 0.55 0.535 0.699 0.438 0.173 0.891 0.308 1.353 0.401 0.892 0.178 1.588 0.349 2.089 0.513 0.505 0.166 0.954 0.467 1.301 0.87 0.367 0.416 0.55 1.001 0.55 1.754 0 0.714-0.198 1.328-0.595 1.844s-0.919 0.91-1.569 1.182c-0.667 0.276-1.382 0.415-2.104 0.409-1.437-0.002-2.545-0.342-3.323-1.021z"></path>
<path fill="#fff" style="fill: var(--color1, #fff)" d="M35.609 29.071v-7.732h-3.91v-2.617h8.356v2.617h-3.91v7.732h-0.535z"></path>
<path fill="#fff" style="fill: var(--color1, #fff)" d="M42.866 18.723h7.538v2.617h-4.832v1.308h4.015v2.483h-4.015v1.323h4.832v2.617h-7.538v-10.349z"></path>
<path fill="#fff" style="fill: var(--color1, #fff)" d="M61.57 29.071h-7.955v-10.349h4.029c0.862 0 1.566 0.154 2.111 0.461 0.521 0.283 0.953 0.705 1.249 1.219 0.299 0.52 0.453 1.11 0.446 1.71 0.007 0.753-0.245 1.485-0.714 2.074-0.449 0.592-1.082 1.018-1.799 1.212l2.632 3.673zM54.165 19.63v5.338h3.821l-3.821-5.338zM54.165 28.521h6.364l-2.171-3.018-0.461 0.015h-3.732v3.003zM54.552 19.273l4.044 5.65c0.649-0.13 1.233-0.482 1.65-0.996 0.429-0.506 0.662-1.15 0.654-1.814 0.006-0.523-0.133-1.038-0.401-1.487-0.267-0.446-0.661-0.803-1.13-1.026-0.436-0.218-1.006-0.327-1.71-0.327h-3.108z"></path>
</symbol>
</defs>
</svg>
